<svg xmlns="http://www.w3.org/2000/svg" xml:space="preserve" fill-rule="evenodd" stroke-linejoin="round" stroke-miterlimit="2" clip-rule="evenodd" viewBox="0 0 545 545">
  <path fill="url(#a)" d="M1143.48 1703.05h544.988v544.988H1143.48z" transform="translate(-1143.487 -1703.049)"/>
  <path fill="#fff" d="M151.5071585 315.13675854v-50.62484222c17.1633853-22.42872756 39.15397272-33.96350174 64.89905067-33.96350174 17.1633853 0 39.15397271 6.40820788 64.89905066 19.86544441 22.5269432 11.53477418 40.2266843 17.30216127 52.56286748 17.30216127 18.77245267 0 38.61761692-12.81641575 59.53549276-37.80842647v50.62484222c-17.1633853 22.42872757-39.15397272 33.96350175-64.89905067 33.96350175-17.69974109 0-39.15397271-6.40820788-64.89905066-19.86544442-22.5269432-11.53477418-40.2266843-17.30216127-52.56286748-17.30216127-18.77245267 0-38.61761692 12.17559497-59.53549276 37.80842647Z"/>
  <defs>
    <linearGradient id="a" x1="0" x2="1" y1="0" y2="0" gradientTransform="scale(-770.73) rotate(45 2.4254807 -4.1028453)" gradientUnits="userSpaceOnUse">
      <stop offset="0" stop-color="#271e47"/>
      <stop offset="1" stop-color="#9745e7"/>
    </linearGradient>
  </defs>
</svg>
